# xmcd
#
# Track frame offsets:
#	150
#	16405
#	33780
#	50820
#	70145
#	83337
#	98645
#	112427
#	127200
#	138850
#	152297
#	167805
#	183100
#	198905
#	212835
#	228822
#	245727
#	253357
#	268685
#	286280
#	302370
#	313727
#	330210
#
# Disc length: 4573 seconds
#
# Revision: 0
# Processed by: cddbd v1.5.2PL0 Copyright (c) Steve Scherf et al.
# Submitted via: EasyCDDAExtractor 15.2.5.1
#
DISCID=3d11db17
DTITLE=Various Artist - turn on the radio - tune into the 70's
DYEAR=1900
DGENRE=
TTITLE0=bob welch - ebony eyes
TTITLE1=albert hammond - it never rains in the southern california
TTITLE2=the doobie brothers - listen to the music
TTITLE3=carly simon - you're so vain
TTITLE4=randy newman - short people
TTITLE5=paul simon - still crazy after all these years
TTITLE6=america - i need you
TTITLE7=fleetwood mac - songbirg
TTITLE8=bread - if
TTITLE9=stephen bishop - on and on
TTITLE10=andrew gold - never let her slip away
TTITLE11=warren zevon - werewolves of london
TTITLE12=steve forbert - romeo's tune
TTITLE13=stephen stills - love the one you're with
TTITLE14=gordon lightfood - sundown
TTITLE15=harry chapin - cats in the cradle
TTITLE16=don mclean - babylon
TTITLE17=seals and crofts - summer breeze
TTITLE18=james taylor - carolina in my mind
TTITLE19=linda ronstadt - desperado
TTITLE20=crosby, stills and nash - carried away
TTITLE21=loud reed - perfect day
TTITLE22=david lee roth - coconut grove
EXTD=
EXTT0=
EXTT1=
EXTT2=
EXTT3=
EXTT4=
EXTT5=
EXTT6=
EXTT7=
EXTT8=
EXTT9=
EXTT10=
EXTT11=
EXTT12=
EXTT13=
EXTT14=
EXTT15=
EXTT16=
EXTT17=
EXTT18=
EXTT19=
EXTT20=
EXTT21=
EXTT22=
PLAYORDER=
